#tb 0: 1/1000
#media_type 0: audio
#codec_id 0: pcm_s16le
#sample_rate 0: 1000
#channel_layout_name 0: mono
0,          0,          0,      132,      264, 0x6bc22416
0,        132,        132,       68,      136, 0xc2ab4d1b
0,        200,        200,      100,      200, 0xb0516565
0,        300,        300,      100,      200, 0x20f16453
0,        400,        400,      100,      200, 0xdebe6681
0,        500,        500,       93,      186, 0x2f516890
0,        593,        593,      110,      220, 0xd13770cf
0,        703,        703,      108,      216, 0x7b456bbc
0,        811,        811,      108,      216, 0x32ad6a62
0,        919,        919,      149,      298, 0xd1662577
0,       1068,       1068,      136,      272, 0xafdb7170
0,       1204,       1204,       98,      196, 0xcf1e6310
0,       1302,       1302,       98,      196, 0x72066b94
0,       1400,       1400,       98,      196, 0x029b6bc1
0,       1498,       1498,      110,      220, 0x6411688e
0,       1608,       1608,      108,      216, 0xe6c96e29
0,       1716,       1716,      107,      214, 0x45a0664b
0,       1823,       1823,      106,      212, 0xadea6a99
0,       1929,       1929,       18,       36, 0x24330f55
